<svg aria-hidden="true" style="position: absolute; width: 0; height: 0; overflow: hidden;" version="1.1" xmlns="http://www.w3.org/2000/svg" xmlns:xlink="http://www.w3.org/1999/xlink">
<defs>
<symbol id="icon-instagram" viewBox="0 0 512 512">
<title>instagram</title>
<path d="m437 0h-362c-41.351562 0-75 33.648438-75 75v362c0 41.351562 33.648438 75 75 75h362c41.351562 0 75-33.648438 75-75v-362c0-41.351562-33.648438-75-75-75zm-180 390c-74.441406 0-135-60.558594-135-135s60.558594-135 135-135 135 60.558594 135 135-60.558594 135-135 135zm150-240c-24.8125 0-45-20.1875-45-45s20.1875-45 45-45 45 20.1875 45 45-20.1875 45-45 45zm0 0"/><path fill="transparent" d="m407 90c-8.277344 0-15 6.722656-15 15s6.722656 15 15 15 15-6.722656 15-15-6.722656-15-15-15zm0 0"/><path d="m257 150c-57.890625 0-105 47.109375-105 105s47.109375 105 105 105 105-47.109375 105-105-47.109375-105-105-105zm0 0"/>
</symbol>
<symbol id="icon-whatsapp" viewBox="0 0 512 512">
<title>whatsapp</title>
<path d="m256 0c-140.609375 0-256 115.390625-256 256 0 46.40625 12.511719 91.582031 36.238281 131.105469l-36.238281 124.894531 124.894531-36.238281c39.523438 23.726562 84.699219 36.238281 131.105469 36.238281 140.609375 0 256-115.390625 256-256s-115.390625-256-256-256zm160.054688 364.167969-11.910157 11.910156c-16.851562 16.851563-55.605469 15.515625-80.507812 10.707031-82.800781-15.992187-179.335938-109.5625-197.953125-190.59375-9.21875-40.140625-4.128906-75.039062 9.183594-88.355468l11.910156-11.910157c6.574218-6.570312 17.253906-6.5625 23.820312 0l47.648438 47.652344c3.179687 3.179687 4.921875 7.394531 4.921875 11.90625s-1.742188 8.730469-4.921875 11.898437l-11.90625 11.921876c-13.125 13.15625-13.125 34.527343 0 47.652343l78.683594 77.648438c13.164062 13.164062 34.46875 13.179687 47.652343 0l11.910157-11.90625c6.148437-6.183594 17.632812-6.203125 23.832031 0l47.636719 47.636719c6.46875 6.441406 6.714843 17.113281 0 23.832031zm0 0"/>
</symbol>
<symbol id="icon-youtube" viewBox="0 0 32 32">
<title>youtube</title>
<path d="M31.681 9.6c0 0-0.313-2.206-1.275-3.175-1.219-1.275-2.581-1.281-3.206-1.356-4.475-0.325-11.194-0.325-11.194-0.325h-0.012c0 0-6.719 0-11.194 0.325-0.625 0.075-1.987 0.081-3.206 1.356-0.963 0.969-1.269 3.175-1.269 3.175s-0.319 2.588-0.319 5.181v2.425c0 2.587 0.319 5.181 0.319 5.181s0.313 2.206 1.269 3.175c1.219 1.275 2.819 1.231 3.531 1.369 2.563 0.244 10.881 0.319 10.881 0.319s6.725-0.012 11.2-0.331c0.625-0.075 1.988-0.081 3.206-1.356 0.962-0.969 1.275-3.175 1.275-3.175s0.319-2.587 0.319-5.181v-2.425c-0.006-2.588-0.325-5.181-0.325-5.181zM12.694 20.15v-8.994l8.644 4.513-8.644 4.481z"></path>
</symbol>
<symbol id="icon-github" viewBox="0 0 32 32">
<title>github</title>
<path d="M16 0.395c-8.836 0-16 7.163-16 16 0 7.069 4.585 13.067 10.942 15.182 0.8 0.148 1.094-0.347 1.094-0.77 0-0.381-0.015-1.642-0.022-2.979-4.452 0.968-5.391-1.888-5.391-1.888-0.728-1.849-1.776-2.341-1.776-2.341-1.452-0.993 0.11-0.973 0.11-0.973 1.606 0.113 2.452 1.649 2.452 1.649 1.427 2.446 3.743 1.739 4.656 1.33 0.143-1.034 0.558-1.74 1.016-2.14-3.554-0.404-7.29-1.777-7.29-7.907 0-1.747 0.625-3.174 1.649-4.295-0.166-0.403-0.714-2.030 0.155-4.234 0 0 1.344-0.43 4.401 1.64 1.276-0.355 2.645-0.532 4.005-0.539 1.359 0.006 2.729 0.184 4.008 0.539 3.054-2.070 4.395-1.64 4.395-1.64 0.871 2.204 0.323 3.831 0.157 4.234 1.026 1.12 1.647 2.548 1.647 4.295 0 6.145-3.743 7.498-7.306 7.895 0.574 0.497 1.085 1.47 1.085 2.963 0 2.141-0.019 3.864-0.019 4.391 0 0.426 0.288 0.925 1.099 0.768 6.354-2.118 10.933-8.113 10.933-15.18 0-8.837-7.164-16-16-16z"></path>
</symbol>
<symbol id="icon-reddit" viewBox="0 -16 512 512">
<title>reddit</title>
<path d="m32.242188 292.996094c-1.320313 7.21875-2.242188 14.527344-2.242188 22.003906 0 90.980469 102.929688 165 227 165s225-74.019531 225-165c0-7.476562-.921875-14.785156-2.242188-22.003906 19.453126-10.140625 32.242188-30.167969 32.242188-52.996094 0-33.089844-26.910156-60-60-60-15.121094 0-29.328125 5.667969-40.222656 15.550781-37.703125-26.285156-87.726563-43.003906-143.035156-45.113281l28.703124-111.339844 64.730469 22.648438c.949219 32.269531 27.332031 58.253906 59.824219 58.253906 33.089844 0 60-26.910156 60-60s-26.910156-60-60-60c-23.070312 0-42.90625 13.226562-52.941406 32.363281l-92.503906-32.347656-38.875 150.703125c-52.3125 3.28125-101.476563 19.746094-137.457032 44.832031-10.894531-9.882812-25.101562-15.550781-40.222656-15.550781-33.089844 0-60 26.910156-60 60 0 22.828125 12.789062 42.855469 32.242188 52.996094zm314.757812-52.996094c24.8125 0 45 20.1875 45 45s-20.1875 45-45 45-45-20.1875-45-45 20.1875-45 45-45zm-6.414062 132.511719 12.828124 27.097656c-28.152343 13.34375-61.492187 20.390625-96.414062 20.390625s-70.261719-7.046875-98.414062-20.390625l12.828124-27.101563c48.34375 22.882813 120.828126 22.882813 169.171876.003907zm-175.585938-132.511719c24.8125 0 45 20.1875 45 45s-20.1875 45-45 45-45-20.1875-45-45 20.1875-45 45-45zm0 0"/>
</symbol>

<symbol id="fingerprint" viewBox="0 0 178.61 175.702">
<title>fingerprint</title>
<path fill="#831848" stroke="#FFFFFF" stroke-miterlimit="10" d="M132.239,128.25c0,1.355-1.008,2.456-2.251,2.456H49.343
	c-1.243,0-2.251-1.101-2.251-2.456V50.063c0-1.356,1.008-2.457,2.251-2.457h80.645c1.243,0,2.251,1.1,2.251,2.457V128.25z"/>
<g>
	<g>
		<path fill="#FFFFFF" d="M89.054,85.313c-0.631,0.183-0.994,0.842-0.813,1.473c0.032,0.11,3.207,11.405,2.333,36.489
			c-0.024,0.657,0.49,1.208,1.146,1.229c0.015,0.001,0.028,0.001,0.043,0.001c0.637,0,1.164-0.506,1.187-1.147
			c0.888-25.462-2.289-36.765-2.423-37.233C90.345,85.494,89.688,85.135,89.054,85.313z"/>
		<path fill="#FFFFFF" d="M118.953,73.946c-5.037-11.902-16.642-19.594-29.566-19.594c-4.266,0-8.425,0.833-12.362,2.477
			c-2.18,0.909-4.241,1.992-6.124,3.215c-0.552,0.359-0.707,1.095-0.351,1.646c0.359,0.55,1.097,0.708,1.646,0.35
			c1.764-1.146,3.696-2.161,5.745-3.016c3.646-1.523,7.497-2.293,11.446-2.293c11.966,0,22.712,7.121,27.375,18.144
			c1.938,4.583,2.986,13.02,3.438,17.643c0.062,0.615,0.577,1.072,1.183,1.072c0.037,0,0.077-0.002,0.117-0.006
			c0.653-0.064,1.132-0.645,1.066-1.299C121.999,86.475,120.911,78.576,118.953,73.946z"/>
		<path fill="#FFFFFF" d="M67.375,65.899c0.469-0.46,0.473-1.214,0.013-1.681s-1.213-0.472-1.681-0.012
			c-6.396,6.299-12.766,18.015-6.799,38.045c0.153,0.518,0.625,0.852,1.14,0.852c0.111,0,0.226-0.018,0.339-0.051
			c0.629-0.187,0.988-0.849,0.801-1.478C56.731,86.614,58.87,74.278,67.375,65.899z"/>
		<path fill="#FFFFFF" d="M90.299,61.503c-3.64-0.142-7.181,0.514-10.527,1.91c-11.659,4.865-17.859,17.687-14.42,29.827
			c0.345,1.213,0.696,2.504,0.885,3.791c0.427,2.912,0.449,8.271,0.449,16.771c0,0.658,0.53,1.189,1.188,1.189
			c0.657,0,1.188-0.531,1.188-1.189c0-8.867-0.022-14.035-0.472-17.117c-0.21-1.43-0.585-2.807-0.951-4.096
			c-3.111-10.981,2.497-22.582,13.048-26.983c3.03-1.264,6.253-1.838,9.526-1.729c8.456,0.305,18.039,7.758,20.93,16.277
			c2.502,7.371,2.524,19.929,2.213,31.238c-0.018,0.656,0.501,1.202,1.157,1.221c0.645-0.013,1.203-0.499,1.221-1.157
			c0.315-11.521,0.284-24.341-2.339-32.068C110.166,69.868,99.804,61.843,90.299,61.503z"/>
		<path fill="#FFFFFF" d="M89.386,68.621c-1.293,0-2.58,0.139-3.827,0.415c-0.642,0.142-1.047,0.775-0.904,1.417
			c0.141,0.641,0.768,1.038,1.417,0.905c1.078-0.237,2.193-0.359,3.313-0.359c6.223,0,11.812,3.703,14.235,9.435
			c2.89,6.825,3.079,17.78,2.411,36.896c-0.023,0.656,0.491,1.208,1.146,1.229c0.015,0.001,0.029,0.001,0.043,0.001
			c0.638,0,1.164-0.506,1.187-1.147c0.694-19.885,0.483-30.628-2.598-37.906C103.013,72.894,96.566,68.621,89.386,68.621z"/>
		<path fill="#FFFFFF" d="M80.554,73.778c0.538-0.376,0.668-1.119,0.29-1.656c-0.375-0.538-1.118-0.67-1.656-0.291
			c-6.123,4.3-8.784,12.561-6.617,20.565c0.025,0.087,2.439,8.873,2.439,22.598c0,0.656,0.532,1.189,1.188,1.189
			c0.658,0,1.189-0.533,1.189-1.189c0-14.047-2.424-22.869-2.524-23.229C72.96,84.733,75.248,77.504,80.554,73.778z"/>
		<path fill="#FFFFFF" d="M101.169,111.435c0.004-0.658-0.523-1.193-1.181-1.199c-0.002,0-0.006,0-0.009,0
			c-0.652,0-1.184,0.527-1.188,1.182c-0.007,0.895,0.022,2.199,0.056,3.609c0.047,2.051,0.099,4.377,0.047,5.871
			c-0.023,0.656,0.49,1.207,1.148,1.229c0.014,0.001,0.027,0.001,0.042,0.001c0.636,0,1.164-0.505,1.187-1.148
			c0.054-1.562,0.001-3.923-0.047-6.007C101.192,113.591,101.164,112.31,101.169,111.435z"/>
		<path fill="#FFFFFF" d="M89.386,76.944c-1.264,0-2.495,0.248-3.664,0.735c-4.628,1.931-6.877,7.152-5.232,12.145
			c0.896,2.723,1.654,16.971,1.654,31.115c0,0.656,0.531,1.188,1.189,1.188c0.657,0,1.188-0.532,1.188-1.188
			c0-12.732-0.678-28.531-1.771-31.858c-1.254-3.802,0.42-7.76,3.889-9.207c0.876-0.366,1.8-0.552,2.747-0.552
			c2.871,0,5.45,1.71,6.574,4.364c2.219,5.255,2.88,14.767,3.041,21.823c0.016,0.646,0.545,1.162,1.189,1.162
			c0.008,0,0.019,0,0.027,0c0.656-0.017,1.176-0.561,1.162-1.217c-0.168-7.261-0.863-17.093-3.235-22.703
			C96.654,79.224,93.215,76.944,89.386,76.944z"/>
	</g>
</g>
<path fill="#831848" stroke="#FFFFFF" stroke-width="2" stroke-miterlimit="10" d="M178.61,170.549c0,2.844-2.113,5.152-4.722,5.152
	H4.722c-2.608,0-4.722-2.309-4.722-5.152V6.538c0-2.845,2.114-5.153,4.722-5.153h169.166c2.608,0,4.722,2.308,4.722,5.153V170.549z"
	/>
<g>
	<g>
		<path fill="#FFFFFF" d="M88.023,80.482c-1.323,0.384-2.085,1.766-1.705,3.09c0.068,0.231,6.727,23.924,4.894,76.542
			c-0.051,1.379,1.028,2.534,2.405,2.579c0.03,0.002,0.059,0.002,0.09,0.002c1.336,0,2.441-1.062,2.489-2.407
			c1.861-53.411-4.802-77.121-5.083-78.103C90.731,80.863,89.352,80.109,88.023,80.482z"/>
		<path fill="#FFFFFF" d="M150.74,56.639c-10.565-24.966-34.908-41.102-62.021-41.102c-8.948,0-17.672,1.748-25.932,5.196
			c-4.572,1.907-8.896,4.178-12.846,6.745c-1.157,0.753-1.483,2.296-0.735,3.452c0.754,1.154,2.3,1.484,3.452,0.733
			c3.7-2.405,7.753-4.532,12.051-6.326c7.649-3.196,15.727-4.811,24.011-4.811c25.101,0,47.643,14.938,57.424,38.06
			c4.066,9.613,6.265,27.312,7.211,37.009c0.129,1.291,1.211,2.249,2.48,2.249c0.078,0,0.162-0.004,0.246-0.012
			c1.37-0.136,2.374-1.353,2.237-2.725C157.129,82.919,154.847,66.35,150.74,56.639z"/>
		<path fill="#FFFFFF" d="M42.546,39.758c0.983-0.965,0.991-2.546,0.026-3.527c-0.965-0.98-2.544-0.99-3.525-0.024
			c-13.416,13.214-26.778,37.79-14.262,79.807c0.322,1.086,1.311,1.786,2.391,1.786c0.233,0,0.473-0.037,0.711-0.106
			c1.319-0.392,2.073-1.78,1.68-3.1C20.219,83.212,24.705,57.335,42.546,39.758z"/>
		<path fill="#FFFFFF" d="M90.635,30.537C83,30.24,75.572,31.614,68.552,34.542C44.094,44.747,31.088,71.643,38.303,97.111
			c0.723,2.544,1.46,5.252,1.856,7.952c0.895,6.108,0.942,17.351,0.942,35.181c0,1.381,1.112,2.495,2.493,2.495
			c1.378,0,2.493-1.114,2.493-2.495c0-18.601-0.047-29.441-0.989-35.906c-0.44-2.999-1.227-5.888-1.995-8.592
			c-6.527-23.035,5.238-47.37,27.37-56.601c6.356-2.651,13.117-3.855,19.983-3.627c17.738,0.639,37.84,16.273,43.903,34.145
			c5.249,15.461,5.296,41.804,4.643,65.528c-0.037,1.377,1.051,2.522,2.427,2.561c1.353-0.026,2.524-1.047,2.562-2.427
			c0.661-24.167,0.596-51.061-4.906-67.269C132.308,48.084,110.573,31.25,90.635,30.537z"/>
		<path fill="#FFFFFF" d="M88.719,45.467c-2.712,0-5.412,0.292-8.028,0.871c-1.346,0.297-2.196,1.626-1.896,2.974
			c0.295,1.345,1.61,2.177,2.972,1.898c2.262-0.498,4.601-0.753,6.949-0.753c13.053,0,24.776,7.768,29.861,19.792
			c6.062,14.317,6.459,37.297,5.058,77.395c-0.049,1.377,1.03,2.534,2.405,2.579c0.03,0.002,0.062,0.002,0.09,0.002
			c1.338,0,2.441-1.061,2.489-2.407c1.456-41.712,1.014-64.247-5.449-79.514C117.304,54.432,103.78,45.467,88.719,45.467z"/>
		<path fill="#FFFFFF" d="M70.192,56.286c1.129-0.79,1.401-2.348,0.608-3.475c-0.787-1.127-2.345-1.405-3.474-0.609
			C54.482,61.221,48.9,78.55,53.446,95.34c0.053,0.183,5.117,18.613,5.117,47.402c0,1.377,1.117,2.495,2.493,2.495
			c1.381,0,2.495-1.118,2.495-2.495c0-29.466-5.084-47.972-5.295-48.726C54.263,79.266,59.061,64.103,70.192,56.286z"/>
		<path fill="#FFFFFF" d="M113.437,135.278c0.008-1.38-1.099-2.503-2.477-2.515c-0.005,0-0.013,0-0.019,0
			c-1.369,0-2.483,1.105-2.493,2.479c-0.015,1.876,0.047,4.613,0.116,7.571c0.099,4.302,0.207,9.182,0.099,12.315
			c-0.049,1.377,1.028,2.532,2.409,2.577c0.028,0.002,0.058,0.002,0.088,0.002c1.334,0,2.442-1.06,2.489-2.409
			c0.112-3.275,0.002-8.229-0.099-12.601C113.484,139.801,113.424,137.114,113.437,135.278z"/>
		<path fill="#FFFFFF" d="M88.719,62.928c-2.651,0-5.234,0.52-7.686,1.542c-9.708,4.051-14.426,15.003-10.976,25.476
			c1.881,5.711,3.47,35.599,3.47,65.27c0,1.377,1.115,2.493,2.495,2.493c1.379,0,2.493-1.116,2.493-2.493
			c0-26.708-1.422-59.85-3.716-66.828c-2.63-7.975,0.881-16.277,8.157-19.313c1.837-0.768,3.775-1.157,5.762-1.157
			c6.022,0,11.433,3.587,13.791,9.154c4.654,11.023,6.041,30.976,6.379,45.778c0.032,1.355,1.143,2.438,2.495,2.438
			c0.017,0,0.039,0,0.058,0c1.376-0.035,2.466-1.176,2.438-2.553c-0.353-15.23-1.812-35.855-6.787-47.624
			C103.964,67.709,96.751,62.928,88.719,62.928z"/>
	</g>
</g>
</symbol>

</defs>
</svg>
