<svg aria-hidden="true" style="position: absolute; width: 0; height: 0; overflow: hidden;" version="1.1" xmlns="http://www.w3.org/2000/svg" xmlns:xlink="http://www.w3.org/1999/xlink">
<defs>
<symbol id="icon-instagram" viewBox="0 0 512 512">
<title>instagram</title>
<path d="m437 0h-362c-41.351562 0-75 33.648438-75 75v362c0 41.351562 33.648438 75 75 75h362c41.351562 0 75-33.648438 75-75v-362c0-41.351562-33.648438-75-75-75zm-180 390c-74.441406 0-135-60.558594-135-135s60.558594-135 135-135 135 60.558594 135 135-60.558594 135-135 135zm150-240c-24.8125 0-45-20.1875-45-45s20.1875-45 45-45 45 20.1875 45 45-20.1875 45-45 45zm0 0"/><path fill="transparent" d="m407 90c-8.277344 0-15 6.722656-15 15s6.722656 15 15 15 15-6.722656 15-15-6.722656-15-15-15zm0 0"/><path d="m257 150c-57.890625 0-105 47.109375-105 105s47.109375 105 105 105 105-47.109375 105-105-47.109375-105-105-105zm0 0"/>
</symbol>
<symbol id="icon-whatsapp" viewBox="0 0 512 512">
<title>whatsapp</title>
<path d="m256 0c-140.609375 0-256 115.390625-256 256 0 46.40625 12.511719 91.582031 36.238281 131.105469l-36.238281 124.894531 124.894531-36.238281c39.523438 23.726562 84.699219 36.238281 131.105469 36.238281 140.609375 0 256-115.390625 256-256s-115.390625-256-256-256zm160.054688 364.167969-11.910157 11.910156c-16.851562 16.851563-55.605469 15.515625-80.507812 10.707031-82.800781-15.992187-179.335938-109.5625-197.953125-190.59375-9.21875-40.140625-4.128906-75.039062 9.183594-88.355468l11.910156-11.910157c6.574218-6.570312 17.253906-6.5625 23.820312 0l47.648438 47.652344c3.179687 3.179687 4.921875 7.394531 4.921875 11.90625s-1.742188 8.730469-4.921875 11.898437l-11.90625 11.921876c-13.125 13.15625-13.125 34.527343 0 47.652343l78.683594 77.648438c13.164062 13.164062 34.46875 13.179687 47.652343 0l11.910157-11.90625c6.148437-6.183594 17.632812-6.203125 23.832031 0l47.636719 47.636719c6.46875 6.441406 6.714843 17.113281 0 23.832031zm0 0"/>
</symbol>
<symbol id="icon-youtube" viewBox="0 0 32 32">
<title>youtube</title>
<path d="M31.681 9.6c0 0-0.313-2.206-1.275-3.175-1.219-1.275-2.581-1.281-3.206-1.356-4.475-0.325-11.194-0.325-11.194-0.325h-0.012c0 0-6.719 0-11.194 0.325-0.625 0.075-1.987 0.081-3.206 1.356-0.963 0.969-1.269 3.175-1.269 3.175s-0.319 2.588-0.319 5.181v2.425c0 2.587 0.319 5.181 0.319 5.181s0.313 2.206 1.269 3.175c1.219 1.275 2.819 1.231 3.531 1.369 2.563 0.244 10.881 0.319 10.881 0.319s6.725-0.012 11.2-0.331c0.625-0.075 1.988-0.081 3.206-1.356 0.962-0.969 1.275-3.175 1.275-3.175s0.319-2.587 0.319-5.181v-2.425c-0.006-2.588-0.325-5.181-0.325-5.181zM12.694 20.15v-8.994l8.644 4.513-8.644 4.481z"></path>
</symbol>
<symbol id="icon-github" viewBox="0 0 32 32">
<title>github</title>
<path d="M16 0.395c-8.836 0-16 7.163-16 16 0 7.069 4.585 13.067 10.942 15.182 0.8 0.148 1.094-0.347 1.094-0.77 0-0.381-0.015-1.642-0.022-2.979-4.452 0.968-5.391-1.888-5.391-1.888-0.728-1.849-1.776-2.341-1.776-2.341-1.452-0.993 0.11-0.973 0.11-0.973 1.606 0.113 2.452 1.649 2.452 1.649 1.427 2.446 3.743 1.739 4.656 1.33 0.143-1.034 0.558-1.74 1.016-2.14-3.554-0.404-7.29-1.777-7.29-7.907 0-1.747 0.625-3.174 1.649-4.295-0.166-0.403-0.714-2.030 0.155-4.234 0 0 1.344-0.43 4.401 1.64 1.276-0.355 2.645-0.532 4.005-0.539 1.359 0.006 2.729 0.184 4.008 0.539 3.054-2.070 4.395-1.64 4.395-1.64 0.871 2.204 0.323 3.831 0.157 4.234 1.026 1.12 1.647 2.548 1.647 4.295 0 6.145-3.743 7.498-7.306 7.895 0.574 0.497 1.085 1.47 1.085 2.963 0 2.141-0.019 3.864-0.019 4.391 0 0.426 0.288 0.925 1.099 0.768 6.354-2.118 10.933-8.113 10.933-15.18 0-8.837-7.164-16-16-16z"></path>
</symbol>
<symbol id="icon-reddit" viewBox="0 -16 512 512">
<title>reddit</title>
<path d="m32.242188 292.996094c-1.320313 7.21875-2.242188 14.527344-2.242188 22.003906 0 90.980469 102.929688 165 227 165s225-74.019531 225-165c0-7.476562-.921875-14.785156-2.242188-22.003906 19.453126-10.140625 32.242188-30.167969 32.242188-52.996094 0-33.089844-26.910156-60-60-60-15.121094 0-29.328125 5.667969-40.222656 15.550781-37.703125-26.285156-87.726563-43.003906-143.035156-45.113281l28.703124-111.339844 64.730469 22.648438c.949219 32.269531 27.332031 58.253906 59.824219 58.253906 33.089844 0 60-26.910156 60-60s-26.910156-60-60-60c-23.070312 0-42.90625 13.226562-52.941406 32.363281l-92.503906-32.347656-38.875 150.703125c-52.3125 3.28125-101.476563 19.746094-137.457032 44.832031-10.894531-9.882812-25.101562-15.550781-40.222656-15.550781-33.089844 0-60 26.910156-60 60 0 22.828125 12.789062 42.855469 32.242188 52.996094zm314.757812-52.996094c24.8125 0 45 20.1875 45 45s-20.1875 45-45 45-45-20.1875-45-45 20.1875-45 45-45zm-6.414062 132.511719 12.828124 27.097656c-28.152343 13.34375-61.492187 20.390625-96.414062 20.390625s-70.261719-7.046875-98.414062-20.390625l12.828124-27.101563c48.34375 22.882813 120.828126 22.882813 169.171876.003907zm-175.585938-132.511719c24.8125 0 45 20.1875 45 45s-20.1875 45-45 45-45-20.1875-45-45 20.1875-45 45-45zm0 0"/>
</symbol>
</defs>
</svg>
